<svg version="1.2" xmlns="http://www.w3.org/2000/svg" viewBox="0 0 500 250" width="500" height="250">
	<title>Nowy projekt</title>
	<style>
		.s0 { opacity: .21;fill: #aaf3bb;stroke: #4bee71;stroke-miterlimit:10 } 
		.s1 { opacity: .11;fill: #aaf3bb;stroke: #4bee71;stroke-miterlimit:10 } 
	</style>
	<g id="Layer 1">
	</g>
	<g id="Folder 1">
		<path id="Kształt 1" fill-rule="evenodd" class="s0" d="m-135 98.4c-1.3 3 6.7 4.1 19 7 9.9 2.2 19.7 4.3 29.6 6.4 48.9 10.5 95 25.1 142.6 40.1 83.7 26.4 170.2 41.8 257.2 52.5 31.7 3.9 63.6 7.1 95.3 10.5 27.1 2.9 54.4 2.8 81.1 8.7 29 6.3 57.8 17.7 86.2 26.4"/>
		<path id="Kształt 2" fill-rule="evenodd" class="s1" d="m-108.9 60.2c85.8 26 171.3 50.5 258.2 73.4 47 12.3 93.9 28 141.5 38.3 48.7 10.5 97.3 10.7 146.3 17.3 21.9 2.9 39.2 5.8 59.2 14.3 18.3 7.9 23.3 21.8 44.6 23.7"/>
		<path id="Kształt 3" fill-rule="evenodd" class="s1" d="m-70 151.9c41.7-12 87.3-6.4 129.5-0.6 73.4 10 138.1 33 209.4 49.5 56.9 13.2 115.6 21.3 173.7 25.3 30.9 2.1 61.9 0.2 92.4 4.8"/>
		<path id="Kształt 4" fill-rule="evenodd" class="s1" d="m-142 161c40.3-10.4 89.1-1.6 128.8 4.4 78.8 11.9 105.7 15.2 178.7 37.7 57.5 17.8 109.2 46.1 169.8 53.7 31.3 4 69.4 5.3 100.8 5.1 20-0.1 52.1 1.3 69.9-12"/>
		<path id="Kształt 5" fill-rule="evenodd" class="s1" d="m-56 202.7c16.3-14.1 82.4-1.9 95.7 0.2 60 9.6 115 29.3 173.1 45.4 45.6 12.7 94.6 26.5 141.7 14.8"/>
		<path id="Kształt 6" fill-rule="evenodd" class="s1" d="m-25 227.9c4.9-4 11.7-3.6 17.7-3.6 29 0.2 59.1 5.8 87.1 12.1 36.7 8.4 70.5 24.1 106.5 34.5 31.5 9 63.2 12.4 95.7 11"/>
		<path id="Kształt 7" fill-rule="evenodd" class="s1" d="m-74 39.6c84.3 34.6 178.2 46.1 266 67.6 130.4 32 238.4 72.6 363.3 108.2"/>
		<path id="Kształt 8" fill-rule="evenodd" class="s1" d="m-72.9 1.5c40.2 9.9 81.3 16 121.1 28 40.4 12.1 79.4 28.4 119.1 42.6 60.5 21.6 121.9 39.4 183.5 57.3 39.2 11.4 78.1 24.3 118.2 32.2 24.6 4.8 48.9 1.4 73.2 4.4"/>
		<path id="Kształt 9" fill-rule="evenodd" class="s1" d="m6.7-12.8c6.8 8.9 28.7 14.1 37.9 17.4 38.9 14 77.8 31.2 118.2 40.5 27.1 6.2 55.2 10.2 81.8 18.3 47.4 14.5 93.2 34.5 141.2 47 23.6 6.1 49.9 6 74 8.9 29.2 3.4 58.5 8.7 87.8 10.7"/>
		<path id="Kształt 10" fill-rule="evenodd" class="s1" d="m170-17.1c18.6 4.6 38.3 3.2 57.2 6.9 27.6 5.3 54.5 16.4 80.9 25.9 26.9 9.7 54.5 17.4 81.3 27.4 42.1 15.7 83.8 32.1 127.1 44.3 14.3 4 28.5 10.3 43.5 10.5"/>
		<path id="Kształt 11" fill-rule="evenodd" class="s1" d="m302-7.1c53.2 0.9 105.5 22.4 153.6 43.3 32.8 14.3 62.5 31.7 99.4 31.7"/>
		<path id="Kształt 12" fill-rule="evenodd" class="s1" d="m406-12.1c22 9.2 45.9 11.6 68.1 20.7 26.3 10.7 43 24.8 72.9 25.3"/>
		<path id="Kształt 13" fill-rule="evenodd" class="s1" d="m394-4.1c9.3 4.4 19.6 6 29 10.3 30.7 14 61.9 33 94.9 41.3 14 3.5 28.9 2.9 43.1 5.4"/>
		<path id="Kształt 14" fill-rule="evenodd" class="s1" d="m89.6-16.1c31.1 7.3 62.7 10.3 93.1 20.4 22 7.3 42.8 17.8 64.7 25.5 23.2 8.2 47.3 13.6 70.9 20.6 37.5 11.1 74.7 23.5 112.3 34.6 40.8 12.2 79.3 26.4 121.4 34.1"/>
	</g>
</svg>